<svg width="100%" height="100%" viewBox="0 0 40 40" fill="none" xmlns="http://www.w3.org/2000/svg">
<path d="M36.8081 12.1994C31.4894 3.99973 20.6305 1.562 12.2092 6.65907C4.0096 11.7561 1.35026 22.8367 6.66894 31.0363L7.11216 31.7012L5.33927 38.3495L11.9876 36.5766L12.6525 37.0199C15.5334 38.5711 18.636 39.4576 21.7385 39.4576C25.0627 39.4576 28.3869 38.5711 31.2678 36.7982C39.4674 31.4796 41.9052 20.6206 36.8081 12.1994ZM32.1543 29.2634C31.2678 30.5931 30.1598 31.4796 28.6085 31.7012C27.722 31.7012 26.614 32.1444 22.1817 30.3715C18.4144 28.5986 15.3118 25.7177 13.0957 22.3935C11.766 20.8422 11.1012 18.8477 10.8796 16.8532C10.8796 15.0803 11.5444 13.529 12.6525 12.421C13.0957 11.9777 13.5389 11.7561 13.9821 11.7561H15.0902C15.5334 11.7561 15.9766 11.7561 16.1982 12.6426C16.6415 13.7506 17.7495 16.41 17.7495 16.6316C17.9711 16.8532 17.9711 17.2964 17.7495 17.518C17.9711 17.9613 17.7495 18.4045 17.5279 18.6261C17.3063 18.8477 17.0847 19.2909 16.8631 19.5125C16.4199 19.7342 16.1982 20.1774 16.4198 20.6206C17.3063 21.9503 18.4144 23.2799 19.5224 24.388C20.8521 25.4961 22.1817 26.3825 23.733 27.0473C24.1763 27.2689 24.6195 27.2689 24.8411 26.8257C25.0627 26.3825 26.1708 25.2744 26.614 24.8312C27.0572 24.388 27.2788 24.388 27.722 24.6096L31.2678 26.3825C31.711 26.6041 32.1543 26.8257 32.3759 27.0473C32.5975 27.7122 32.5975 28.5986 32.1543 29.2634Z" fill="url(#paint0_linear_6150_11440)"/>
<defs>
<linearGradient id="paint0_linear_6150_11440" x1="21.6894" y1="4" x2="21.6894" y2="39.4576" gradientUnits="userSpaceOnUse">
<stop stop-color="#fff"/>
<stop offset="1" stop-color="#fff"/>
</linearGradient>
</defs>
</svg>
